<svg width="70" height="70" viewBox="0 0 70 70" fill="none" xmlns="http://www.w3.org/2000/svg">
<path d="M36 41.3929H50.1864C50.8834 41.3929 51.3643 42.0883 51.0664 42.7184C48.2427 48.6916 42.0031 52.8262 35 52.8262C25.335 52.8262 17.5 44.9511 17.5 35.2366C17.5 25.522 25.335 17.6469 35 17.6469C43.2689 17.6469 42.045 27.1545 56.4375 20.7251C64.3125 17.2071 70 20.7251 70 20.7251C58.0373 -2.14151 49.3522 0.0571985 35 0.0571985C15.67 0.0571985 0 15.8075 0 35.2366V69.9762C21.3651 69.9762 66.2164 71.8908 70 41.3929V30.9597C70 30.4074 69.5523 29.9597 69 29.9597H36C35.4477 29.9597 35 30.4074 35 30.9597V40.3929C35 40.9452 35.4477 41.3929 36 41.3929Z" fill="url(#paint0_linear_1_23)"/>
<defs>
<linearGradient id="paint0_linear_1_23" x1="35" y1="0" x2="35" y2="70.4159" gradientUnits="userSpaceOnUse">
<stop stop-color="#FFB54D"/>
<stop offset="1" stop-color="#FFF28F"/>
</linearGradient>
</defs>
</svg>
