<svg width="221" height="67" viewBox="0 0 221 67" fill="none" xmlns="http://www.w3.org/2000/svg">
<mask id="mask0_21_13" style="mask-type:alpha" maskUnits="userSpaceOnUse" x="0" y="0" width="221" height="67">
<g clip-path="url(#clip0_21_13)">
<path d="M54.181 56.9884L47.7935 46.422L41.5383 56.9884H34.049L43.6706 41.0735L33.865 26.2981H41.6882L47.9699 36.1629L53.961 26.2981H61.4496L51.8025 41.5556L61.714 56.9884H54.181Z" fill="#100F0D"/>
<path d="M86.0564 46.5538C86.0564 53.3055 80.9465 57.5144 74.2503 57.5144C68.3472 57.5144 63.3772 54.2703 62.8928 47.2114H69.2802C69.7207 50.2804 72.1877 51.5957 74.8752 51.5957C78.2229 51.5957 79.6689 49.3597 79.6689 46.466C79.6689 43.4408 77.4224 41.5556 74.2944 41.5556C71.6954 41.5556 69.9774 42.7832 69.1845 44.0986H63.0787L65.1896 26.2981H85.2716L84.6028 32.261H70.2376L69.6674 38.1516C69.6674 38.1516 71.1767 36.3822 75.7483 36.3822C81.255 36.3822 86.0564 40.065 86.0564 46.5538Z" fill="#100F0D"/>
<path d="M63.6494 22.4759C60.2473 9.27508 49.4504 0.000635145 27.048 0.000635145H6.10352e-05L3.67179 24.7098C6.43386 47.0059 15.002 54.1791 30.1646 56.8199C30.236 56.8309 30.7143 56.8988 30.7215 56.3393C30.7239 56.1381 30.5952 55.9644 30.42 55.8907C20.1711 51.5955 19.0014 37.5125 16.8127 23.3788L15.1181 12.1163H30.559C44.7952 12.1163 55.7845 11.8926 62.7446 22.8282C62.8489 22.9828 63.0092 23.0961 63.2 23.0961C63.4694 23.0961 63.6684 22.8786 63.6684 22.6105C63.6684 22.5637 63.6617 22.5187 63.6494 22.4759Z" fill="#55B435"/>
<path d="M91.4141 41.62C91.4141 32.0861 98.3689 25.2078 108.036 25.2078C114.51 25.2078 120.371 28.9517 122.077 34.0886L118.446 35.3077C117.134 31.4766 112.804 28.6905 108.036 28.6905C100.643 28.6905 95.3946 34.0451 95.3946 41.62C95.3946 49.1078 100.687 54.5929 108.036 54.5929C114.685 54.5929 119.933 49.8478 120.108 43.666L104.799 43.6225V40.0963H124.133C124.789 50.5444 118.053 58.0757 108.036 58.0757C98.3689 58.0757 91.4141 51.1538 91.4141 41.62Z" fill="#100F0D"/>
<path d="M128.918 35.003H132.461V37.9632H132.855C133.861 35.9607 136.311 34.5677 138.76 34.5677C139.766 34.5677 140.816 34.7854 141.472 35.1335V38.4856C140.335 38.0067 139.023 37.8326 138.192 37.8326C134.867 37.8326 132.549 40.7928 132.549 45.1462V56.9873H128.918V35.003Z" fill="#100F0D"/>
<path d="M163.593 45.9734C163.593 41.0104 160.137 37.3972 155.369 37.3972C150.558 37.3972 147.146 41.0104 147.146 45.9734C147.146 50.9797 150.558 54.5929 155.369 54.5929C160.137 54.5929 163.593 50.9797 163.593 45.9734ZM143.515 45.9734C143.515 39.0516 148.414 34.1324 155.369 34.1324C162.28 34.1324 167.223 39.0516 167.223 45.9734C167.223 52.9387 162.28 57.858 155.369 57.858C148.414 57.858 143.515 52.9387 143.515 45.9734Z" fill="#100F0D"/>
<path d="M191.64 56.9873H188.01V53.9836H187.572C186.041 56.3778 183.548 57.771 180.661 57.771C175.018 57.771 171.475 53.7224 171.475 48.1064V35.003H175.106V48.1064C175.106 51.8504 177.293 54.5059 181.098 54.5059C184.816 54.5059 188.01 51.6762 188.01 47.8018V35.003H191.64V56.9873Z" fill="#100F0D"/>
<path d="M200.966 45.9734C200.966 50.8055 204.422 54.5929 209.19 54.5929C213.914 54.5929 217.369 50.8055 217.369 45.9734C217.369 41.0542 213.914 37.3972 209.19 37.3972C204.422 37.3972 200.966 41.1411 200.966 45.9734ZM221 45.9734C221 52.8518 216.057 57.858 209.627 57.858C206.084 57.858 203.11 56.3343 201.491 53.7224H201.097V67H197.467V35.003H201.097V38.3551H201.491C203.11 35.6996 205.953 34.1324 209.583 34.1324C216.013 34.1324 221 39.0951 221 45.9734Z" fill="#100F0D"/>
</g>
</mask>
<g mask="url(#mask0_21_13)">
<rect x="-10.256" y="-21.8334" width="242.512" height="109.833" fill="#808080"/>
</g>
<defs>
<clipPath id="clip0_21_13">
<rect width="221" height="67" fill="white"/>
</clipPath>
</defs>
</svg>
