<svg width="998" height="355" viewBox="0 0 998 355" fill="none" xmlns="http://www.w3.org/2000/svg">
<path d="M1010.62 30.9361C1018.87 31.6999 1026.17 25.632 1026.94 17.383C1027.7 9.13401 1021.63 1.8277 1013.38 1.06391L1010.62 30.9361ZM14 347.5L27.1388 354.737C52.3446 308.975 84.8356 264.067 119.885 230.82C155.344 197.186 191.264 177.5 223.5 177.5V162.5V147.5C179.736 147.5 136.656 173.564 99.2396 209.055C61.4144 244.933 27.1554 292.525 0.861211 340.263L14 347.5ZM223.5 162.5V177.5C256.226 177.5 282.932 194.989 314.874 216.027C345.55 236.231 380.881 259.5 426.5 259.5V244.5V229.5C391.119 229.5 362.95 211.769 331.376 190.973C301.068 171.011 266.774 147.5 223.5 147.5V162.5ZM426.5 244.5V259.5C451.426 259.5 471.333 248.922 487.841 234.689C503.982 220.773 517.845 202.482 530.545 185.855C543.7 168.634 555.709 153.053 569.138 141.573C582.197 130.409 595.619 124 611.5 124V109V94C586.381 94 566.303 104.529 549.644 118.77C533.353 132.697 519.425 150.991 506.705 167.645C493.53 184.893 481.58 200.477 468.252 211.967C455.292 223.141 442.074 229.5 426.5 229.5V244.5ZM611.5 109V124C646.379 124 664.706 140.128 687.584 160.06C710.782 180.27 737.908 203.5 787.5 203.5V188.5V173.5C749.592 173.5 729.718 156.98 707.291 137.44C684.544 117.622 658.621 94 611.5 94V109ZM787.5 188.5V203.5C815.148 203.5 836.993 188.926 854.987 170.671C872.766 152.634 888.865 128.79 904.27 107.217C920.172 84.9481 935.617 64.6389 953.139 50.3633C970.201 36.4616 988.485 28.8869 1010.62 30.9361L1012 16L1013.38 1.06391C981.515 -1.88687 955.674 9.6009 934.189 27.1055C913.164 44.2361 895.641 67.6769 879.855 89.7831C863.573 112.585 849.265 133.741 833.622 149.611C818.195 165.261 803.602 173.5 787.5 173.5V188.5Z" fill="url(#paint0_linear_62_9)"/>
<defs>
<linearGradient id="paint0_linear_62_9" x1="752.5" y1="227.344" x2="103" y2="227.344" gradientUnits="userSpaceOnUse">
<stop stop-color="#BBFF33"/>
<stop offset="1" stop-color="#FFF7CC"/>
</linearGradient>
</defs>
</svg>
