<svg width="301" height="100" viewBox="0 0 301 100" fill="none" xmlns="http://www.w3.org/2000/svg">
<rect width="301" height="100" rx="10" fill="#242424"/>
<path d="M58 55.3929H72.1864C72.8834 55.3929 73.3643 56.0883 73.0664 56.7184C70.2427 62.6916 64.0031 66.8262 57 66.8262C47.335 66.8262 39.5 58.9511 39.5 49.2366C39.5 39.522 47.335 31.6469 57 31.6469C65.2689 31.6469 64.045 41.1545 78.4375 34.7251C86.3125 31.2071 92 34.7251 92 34.7251C80.0373 11.8585 71.3522 14.0572 57 14.0572C37.67 14.0572 22 29.8075 22 49.2366V83.9762C43.3651 83.9762 88.2164 85.8908 92 55.3929V44.9597C92 44.4074 91.5523 43.9597 91 43.9597H58C57.4477 43.9597 57 44.4074 57 44.9597V54.3929C57 54.9452 57.4477 55.3929 58 55.3929Z" fill="url(#paint0_linear_24_2)"/>
<path d="M100.523 73V26.4545H119.75C123.235 26.4545 126.242 27.1364 128.773 28.5C131.318 29.8485 133.28 31.7348 134.659 34.1591C136.038 36.5682 136.727 39.3712 136.727 42.5682C136.727 45.7803 136.023 48.5909 134.614 51C133.22 53.3939 131.227 55.25 128.636 56.5682C126.045 57.8864 122.97 58.5455 119.409 58.5455H107.545V49.6818H117.318C119.015 49.6818 120.432 49.3864 121.568 48.7955C122.72 48.2045 123.591 47.3788 124.182 46.3182C124.773 45.2424 125.068 43.9924 125.068 42.5682C125.068 41.1288 124.773 39.8864 124.182 38.8409C123.591 37.7803 122.72 36.9621 121.568 36.3864C120.417 35.8106 119 35.5227 117.318 35.5227H111.773V73H100.523ZM142.273 73V26.4545H161.5C164.985 26.4545 167.992 27.0833 170.523 28.3409C173.068 29.5833 175.03 31.3712 176.409 33.7045C177.788 36.0227 178.477 38.7727 178.477 41.9545C178.477 45.1818 177.773 47.9242 176.364 50.1818C174.955 52.4242 172.955 54.1364 170.364 55.3182C167.773 56.4848 164.705 57.0682 161.159 57.0682H149V48.2045H159.068C160.765 48.2045 162.182 47.9848 163.318 47.5455C164.47 47.0909 165.341 46.4091 165.932 45.5C166.523 44.5758 166.818 43.3939 166.818 41.9545C166.818 40.5151 166.523 39.3258 165.932 38.3864C165.341 37.4318 164.47 36.7197 163.318 36.25C162.167 35.7652 160.75 35.5227 159.068 35.5227H153.523V73H142.273ZM168.477 51.7273L180.068 73H167.795L156.432 51.7273H168.477ZM228.58 49.7273C228.58 54.8485 227.595 59.1894 225.625 62.75C223.655 66.3106 220.989 69.0152 217.625 70.8636C214.277 72.7121 210.519 73.6364 206.352 73.6364C202.17 73.6364 198.405 72.7045 195.057 70.8409C191.708 68.9773 189.049 66.2727 187.08 62.7273C185.125 59.1667 184.148 54.8333 184.148 49.7273C184.148 44.6061 185.125 40.2652 187.08 36.7045C189.049 33.1439 191.708 30.4394 195.057 28.5909C198.405 26.7424 202.17 25.8182 206.352 25.8182C210.519 25.8182 214.277 26.7424 217.625 28.5909C220.989 30.4394 223.655 33.1439 225.625 36.7045C227.595 40.2652 228.58 44.6061 228.58 49.7273ZM217.08 49.7273C217.08 46.697 216.648 44.1364 215.784 42.0455C214.936 39.9545 213.708 38.3712 212.102 37.2955C210.511 36.2197 208.595 35.6818 206.352 35.6818C204.125 35.6818 202.208 36.2197 200.602 37.2955C198.996 38.3712 197.761 39.9545 196.898 42.0455C196.049 44.1364 195.625 46.697 195.625 49.7273C195.625 52.7576 196.049 55.3182 196.898 57.4091C197.761 59.5 198.996 61.0833 200.602 62.1591C202.208 63.2348 204.125 63.7727 206.352 63.7727C208.595 63.7727 210.511 63.2348 212.102 62.1591C213.708 61.0833 214.936 59.5 215.784 57.4091C216.648 55.3182 217.08 52.7576 217.08 49.7273ZM252.352 73H235.148V26.4545H252.33C257.072 26.4545 261.155 27.3864 264.58 29.25C268.019 31.0985 270.67 33.7651 272.534 37.25C274.398 40.7197 275.33 44.8712 275.33 49.7045C275.33 54.553 274.398 58.7197 272.534 62.2045C270.686 65.6894 268.042 68.3636 264.602 70.2273C261.163 72.0758 257.08 73 252.352 73ZM246.398 63.4091H251.92C254.527 63.4091 256.731 62.9697 258.534 62.0909C260.352 61.197 261.723 59.75 262.648 57.75C263.587 55.7348 264.057 53.053 264.057 49.7045C264.057 46.3561 263.587 43.6894 262.648 41.7045C261.708 39.7045 260.322 38.2652 258.489 37.3864C256.67 36.4924 254.428 36.0455 251.761 36.0455H246.398V63.4091Z" fill="white"/>
<defs>
<linearGradient id="paint0_linear_24_2" x1="57" y1="14" x2="57" y2="84.4159" gradientUnits="userSpaceOnUse">
<stop stop-color="#FFB54D"/>
<stop offset="1" stop-color="#FFF28F"/>
</linearGradient>
</defs>
</svg>
